<?xml version="1.0" standalone="no"?>
<!DOCTYPE svg PUBLIC "-//W3C//DTD SVG 20010904//EN"
 "http://www.w3.org/TR/2001/REC-SVG-20010904/DTD/svg10.dtd">
<svg version="1.0" xmlns="http://www.w3.org/2000/svg"
 width="1024.000000pt" height="1024.000000pt" viewBox="0 0 1024.000000 1024.000000"
 preserveAspectRatio="xMidYMid meet">

<g transform="translate(0.000000,1024.000000) scale(0.100000,-0.100000)"
fill="#000000" stroke="none">
<path d="M0 5120 l0 -5120 5120 0 5120 0 0 5120 0 5120 -5120 0 -5120 0 0
-5120z m5415 2352 c110 -50 344 -158 520 -242 176 -84 482 -227 680 -320 198
-92 668 -313 1045 -490 377 -177 933 -437 1235 -577 303 -140 552 -257 555
-259 9 -9 -37 -80 -87 -135 -34 -36 -71 -64 -105 -79 -51 -22 -53 -22 -112 -5
-34 9 -268 99 -521 200 -380 151 -2320 919 -3221 1274 -281 110 -286 111 -442
47 -130 -52 -531 -216 -1412 -576 -1146 -467 -1344 -549 -1745 -713 -680 -279
-634 -265 -715 -221 -51 28 -201 164 -199 181 1 11 225 121 1774 868 1622 783
1926 930 2166 1051 105 52 214 101 242 108 61 16 46 21 342 -112z m-78 -1396
c109 -25 362 -87 563 -139 201 -52 748 -192 1215 -312 468 -120 1089 -279
1380 -354 l530 -136 3 -183 2 -183 -21 6 c-12 4 -294 76 -628 160 -333 84
-1088 275 -1678 425 -590 149 -1187 297 -1328 329 l-255 58 -198 -47 c-202
-49 -351 -87 -837 -215 -154 -41 -829 -216 -1500 -390 -671 -174 -1228 -318
-1238 -321 -16 -5 -17 6 -15 177 l3 182 255 67 c140 37 685 181 1210 319 525
139 1180 313 1455 386 536 143 814 213 857 214 14 1 116 -19 225 -43z m358
-859 c106 -54 160 -144 160 -267 0 -83 -14 -116 -89 -223 l-41 -58 -3 -870 -2
-869 -160 0 -159 0 -3 858 c-3 820 -4 859 -22 892 -10 19 -29 49 -41 65 -36
47 -72 126 -80 172 -14 87 43 222 117 275 90 64 227 75 323 25z m-916 -43 c60
-32 92 -66 127 -137 57 -112 40 -214 -56 -342 -33 -44 -62 -93 -65 -110 -3
-16 -7 -394 -8 -840 l-2 -810 -170 0 -170 0 -5 860 -5 860 -44 94 c-54 115
-60 192 -22 276 71 160 270 231 420 149z m-723 -143 c109 -48 174 -151 174
-274 0 -70 -24 -130 -83 -213 -19 -27 -40 -67 -46 -89 -7 -27 -11 -274 -11
-782 l0 -743 -170 0 -170 0 -2 778 -3 777 -29 50 c-74 127 -81 146 -81 230 1
67 5 88 27 130 75 143 245 202 394 136z m2430 -6 c61 -30 108 -79 138 -144 29
-65 29 -181 0 -236 -12 -22 -38 -71 -58 -108 l-36 -68 0 -770 0 -769 -180 0
-179 0 -3 773 -3 772 -59 111 c-51 96 -59 118 -59 165 1 71 16 125 52 180 80
119 251 160 387 94z m-3106 -166 c94 -41 157 -135 167 -250 7 -71 -12 -129
-68 -211 -74 -108 -69 -56 -69 -798 l0 -670 -170 0 -170 0 0 633 c0 369 -5
661 -10 701 -6 42 -21 88 -37 115 -68 118 -76 140 -77 214 0 87 23 146 79 200
93 91 236 117 355 66z m3871 -1 c91 -38 156 -135 166 -248 7 -72 -12 -130 -68
-212 -74 -108 -69 -56 -69 -798 l0 -670 -160 0 -159 0 -3 678 c-3 754 3 685
-74 792 -51 71 -67 116 -67 195 -1 84 23 144 78 198 93 91 235 117 356 65z
m-4594 -153 c111 -33 207 -167 206 -289 0 -72 -17 -115 -79 -207 -25 -36 -49
-83 -54 -105 -5 -21 -10 -294 -10 -606 l0 -568 -170 0 -169 0 -3 603 -3 602
-26 50 c-14 28 -38 71 -53 96 -58 101 -43 240 37 326 90 98 206 133 324 98z
m5351 -14 c98 -50 167 -144 179 -241 8 -70 -13 -143 -65 -218 -77 -113 -72
-67 -72 -717 l0 -585 -160 0 -160 0 0 568 c0 312 -4 584 -9 604 -5 21 -34 76
-64 124 -87 133 -94 218 -29 337 73 135 250 194 380 128z m-6050 -192 c60 -29
128 -98 153 -154 45 -103 33 -198 -39 -303 -76 -112 -72 -77 -72 -622 l0 -490
-160 0 -160 0 0 468 c0 266 -5 485 -10 509 -6 23 -33 77 -60 119 -89 136 -98
215 -39 333 73 146 245 208 387 140z m6827 -23 c91 -42 161 -144 172 -252 8
-73 -17 -148 -72 -214 -92 -112 -94 -127 -95 -672 l0 -408 -145 0 -145 0 0
458 c0 268 -5 475 -11 500 -5 24 -27 69 -48 100 -53 79 -69 113 -82 171 -28
132 58 274 199 326 62 23 169 19 227 -9z"/>
</g>
</svg>
